<svg xmlns="http://www.w3.org/2000/svg" width="40" height="40" viewBox="0 0 40 40">
  <g id="组_8878" data-name="组 8878" transform="translate(-2506 -1535)">
    <rect id="矩形_1048" data-name="矩形 1048" width="40" height="40" transform="translate(2506 1535)" fill="#edf6fe"/>
    <g id="组_8877" data-name="组 8877" transform="translate(2315.537 1343.237)">
      <path id="路径_10143" data-name="路径 10143" d="M210.463,211.763m-14.663,0A14.663,14.663,0,1,0,210.463,197.1,14.663,14.663,0,0,0,195.8,211.763Z" fill="#f2f2f2"/>
      <path id="路径_10144" data-name="路径 10144" d="M286.151,279.756h-2.207A10.075,10.075,0,0,1,273.9,269.712v-4.068A10.075,10.075,0,0,1,283.944,255.6h2.207A10.075,10.075,0,0,1,296.2,265.644v4.068A10.075,10.075,0,0,1,286.151,279.756Z" transform="translate(-74.456 -55.771)" fill="#ffdcbf"/>
      <path id="路径_10145" data-name="路径 10145" d="M390.255,478.956m-1.456,0a1.456,1.456,0,1,0,1.456-1.456A1.456,1.456,0,0,0,388.8,478.956Z" transform="translate(-183.996 -267.319)" fill="#02374e"/>
      <path id="路径_10146" data-name="路径 10146" d="M575.156,478.956m-1.456,0a1.456,1.456,0,1,0,1.456-1.456A1.456,1.456,0,0,0,573.7,478.956Z" transform="translate(-360.27 -267.319)" fill="#02374e"/>
      <path id="路径_10147" data-name="路径 10147" d="M426.581,589.789h-3.737a2.445,2.445,0,1,1,0-4.889h3.737a2.445,2.445,0,1,1,0,4.889Z" transform="translate(-214.122 -369.708)" fill="#fcfcfc"/>
      <path id="路径_10148" data-name="路径 10148" d="M492.861,480.806a.963.963,0,0,1-.961-.961v-1.484a.961.961,0,1,1,1.922,0v1.488A.965.965,0,0,1,492.861,480.806Z" transform="translate(-282.286 -267.223)" fill="#e6664d"/>
      <path id="路径_10149" data-name="路径 10149" d="M226.8,466.353a2.3,2.3,0,0,1-2.3-2.3V462.5a2.3,2.3,0,1,1,4.6,0v1.553A2.3,2.3,0,0,1,226.8,466.353Zm22.3,0a2.3,2.3,0,0,1-2.3-2.3V462.5a2.3,2.3,0,1,1,4.6,0v1.553A2.3,2.3,0,0,1,249.1,466.353Z" transform="translate(-27.361 -250.826)" fill="#ffdcbf"/>
      <path id="路径_10150" data-name="路径 10150" d="M465.8,625.7a2.3,2.3,0,1,1,2.3-2.3A2.3,2.3,0,0,1,465.8,625.7Zm0-3.452a1.152,1.152,0,1,0,1.152,1.152A1.155,1.155,0,0,0,465.8,622.248Z" transform="translate(-255.211 -404.22)" fill="#aaa"/>
      <path id="路径_10151" data-name="路径 10151" d="M347.46,216.509l-7.66-3.616a8.962,8.962,0,0,1,11.934-4.278l7.66,3.616A8.962,8.962,0,0,1,347.46,216.509Z" transform="translate(-137.282 -10.158)" fill="#02374e"/>
      <path id="路径_10152" data-name="路径 10152" d="M273.5,323.653A4.144,4.144,0,0,0,276.6,317,9.988,9.988,0,0,0,273.5,323.653Zm22.314,0a4.144,4.144,0,0,1-3.1-6.653A10.009,10.009,0,0,1,295.814,323.653Z" transform="translate(-74.075 -114.306)" fill="#02374e"/>
    </g>
  </g>
</svg>
