<svg xmlns="http://www.w3.org/2000/svg" width="12" height="12" viewBox="0 0 12 12"><defs><style>.a{fill:#2c7ef8;}</style></defs><path class="a" d="M9.715,8.977C7.475,8.779,7.342,7.77,7.342,7.77V6.762C8.65,6.257,9.05,4.328,9.05,4.328c0-.767-.377-.789-.377-.789V2.289C8.761.205,7.5.688,7.475.688S6.766.139,6.766.139C6.277-.233,5.19.271,5.19.271H5.145a1.612,1.612,0,0,0-1.552.92l.023,2.3c-.642,0-.555.9-.555.9,0,.986,1.73,2.346,1.73,2.346a2.466,2.466,0,0,1-.576,1.951,11.316,11.316,0,0,0-2.506.439l-.093.029A2.666,2.666,0,0,0,0,10.8V11.98L5.434,12l.8-.023H12v-.921C12.022,9.7,9.715,8.977,9.715,8.977ZM6.848,10.491,6.013,12,5.2,10.491,5.008,9.74l.36-1.6H6.676l.342,1.6-.17.751Z" transform="translate(0 -0.002)"/></svg>