<svg xmlns="http://www.w3.org/2000/svg" width="12" height="12" viewBox="0 0 12 12">
  <g id="组_8863" data-name="组 8863" transform="translate(-190 -62)">
    <rect id="矩形_1047" data-name="矩形 1047" width="12" height="12" transform="translate(190 62)" fill="none"/>
    <path id="路径_10140" data-name="路径 10140" d="M123.18,100.017v-.164h2.29l-.757-4.339s-.963-2.84-3.074-2.84-3.149,2.84-3.149,2.84l-.666,4.339h2.291v.162h0l-4.463,2.829v1.564h12v-1.546Zm.116,2.726c-1.093,1.019-1.657-.532-1.657-.532s-.565,1.551-1.658.532c0,0-.48-.3-.532-2.31l2.19,1.777,2.19-1.777C123.778,102.443,123.3,102.743,123.3,102.743Z" transform="translate(74.352 -30.408)" fill="#f37f7e"/>
  </g>
</svg>
