<?xml version="1.0" encoding="UTF-8"?>
<!DOCTYPE svg PUBLIC "-//W3C//DTD SVG 1.1//EN" "http://www.w3.org/Graphics/SVG/1.1/DTD/svg11.dtd">
<svg xmlns="http://www.w3.org/2000/svg" version="1.1" width="2084px" height="2084px" style="shape-rendering:geometricPrecision; text-rendering:geometricPrecision; image-rendering:optimizeQuality; fill-rule:evenodd; clip-rule:evenodd" xmlns:xlink="http://www.w3.org/1999/xlink">
<g><path style="opacity:0.998" fill="#298df7" d="M 1298.5,546.5 C 1335.3,639.897 1327.8,729.563 1276,815.5C 1258.52,841.152 1238.02,864.152 1214.5,884.5C 1133.4,946.016 1043.74,962.516 945.5,934C 903.397,919.965 866.397,897.798 834.5,867.5C 762.927,793.598 735.427,705.598 752,603.5C 755.132,588.945 758.965,574.611 763.5,560.5C 802.49,463.131 873.157,402.297 975.5,378C 1067.5,361.165 1149.5,382.165 1221.5,441C 1255.12,470.421 1280.79,505.588 1298.5,546.5 Z"/></g>
<g><path style="opacity:0.996" fill="#a8d7fe" d="M 1214.5,884.5 C 1238.02,864.152 1258.52,841.152 1276,815.5C 1327.8,729.563 1335.3,639.897 1298.5,546.5C 1373.57,524.679 1440.9,538.845 1500.5,589C 1556.86,643.756 1577.69,709.923 1563,787.5C 1542.89,864.943 1494.72,915.777 1418.5,940C 1347.62,957.761 1283.95,943.761 1227.5,898C 1222.96,893.631 1218.63,889.131 1214.5,884.5 Z"/></g>
<g><path style="opacity:0.996" fill="#a8d7fe" d="M 763.5,560.5 C 758.965,574.611 755.132,588.945 752,603.5C 735.427,705.598 762.927,793.598 834.5,867.5C 790.046,923.718 731.713,950.885 659.5,949C 586.404,943.161 530.571,909.328 492,847.5C 460.563,789.993 455.896,730.326 478,668.5C 510.412,593.358 567.245,550.191 648.5,539C 689.088,534.819 727.421,541.986 763.5,560.5 Z"/></g>
<g><path style="opacity:0.998" fill="#298df7" d="M 1229.5,1045.5 C 1378.91,1091.41 1482.41,1187.08 1540,1332.5C 1562.48,1393.96 1570.98,1457.3 1565.5,1522.5C 1555.26,1578.85 1526.6,1623.02 1479.5,1655C 1449.61,1673.96 1416.94,1684.3 1381.5,1686C 1149.83,1686.67 918.167,1686.67 686.5,1686C 619.403,1681.21 567.236,1651.05 530,1595.5C 516.204,1573.28 507.037,1549.28 502.5,1523.5C 494.4,1376.21 543.733,1251.71 650.5,1150C 710.487,1095.67 780.154,1059.17 859.5,1040.5C 887.725,1033.72 916.391,1029.89 945.5,1029C 1004.5,1028.33 1063.5,1028.33 1122.5,1029C 1158.88,1030.17 1194.54,1035.67 1229.5,1045.5 Z"/></g>
<g><path style="opacity:0.996" fill="#a8d7fe" d="M 1565.5,1522.5 C 1570.98,1457.3 1562.48,1393.96 1540,1332.5C 1482.41,1187.08 1378.91,1091.41 1229.5,1045.5C 1259.39,1035.82 1290.06,1030.32 1321.5,1029C 1376.17,1028.33 1430.83,1028.33 1485.5,1029C 1582.86,1034.77 1664.02,1073.6 1729,1145.5C 1789.63,1216.06 1817.63,1298.06 1813,1391.5C 1802.18,1455.32 1766.01,1497.15 1704.5,1517C 1693.35,1519.88 1682.01,1521.55 1670.5,1522C 1635.5,1522.5 1600.5,1522.67 1565.5,1522.5 Z"/></g>
<g><path style="opacity:0.996" fill="#a8d7fe" d="M 859.5,1040.5 C 780.154,1059.17 710.487,1095.67 650.5,1150C 543.733,1251.71 494.4,1376.21 502.5,1523.5C 479.831,1523.67 457.164,1523.5 434.5,1523C 364.451,1512.62 320.617,1473.12 303,1404.5C 294.084,1288.54 332.584,1191.71 418.5,1114C 476.925,1064.51 544.592,1036.84 621.5,1031C 681.167,1030.33 740.833,1030.33 800.5,1031C 820.625,1032.18 840.292,1035.35 859.5,1040.5 Z"/></g>
</svg>
