<?xml version="1.0" standalone="no"?><!DOCTYPE svg PUBLIC "-//W3C//DTD SVG 1.1//EN" "http://www.w3.org/Graphics/SVG/1.1/DTD/svg11.dtd"><svg t="1671503384550" class="icon" viewBox="0 0 1024 1024" version="1.1" xmlns="http://www.w3.org/2000/svg" p-id="3983" xmlns:xlink="http://www.w3.org/1999/xlink" width="64" height="64"><path d="M864 864a32 32 0 0 1 0 64H160a32 32 0 0 1 0-64h704zM560 96a16 16 0 0 1 16 16v64a16 16 0 0 1-16 16H544v64h272a48 48 0 0 1 47.776 43.392L864 304V448h80a16 16 0 0 1 16 16v128a16 16 0 0 1-16 16H864v144a48 48 0 0 1-43.392 47.776L816 800h-608a48 48 0 0 1-47.776-43.392L160 752V608H80a16 16 0 0 1-16-16v-128a16 16 0 0 1 16-16H160V304a48 48 0 0 1 43.392-47.776L208 256H480V192h-16a16 16 0 0 1-16-16v-64a16 16 0 0 1 16-16h96z m240 224H224v416h576V320z m-112 128a16 16 0 0 1 16 16v64a16 16 0 0 1-16 16h-64a16 16 0 0 1-16-16v-64a16 16 0 0 1 16-16h64z m-288 0a16 16 0 0 1 16 16v64a16 16 0 0 1-16 16h-64a16 16 0 0 1-16-16v-64a16 16 0 0 1 16-16h64z" fill="#ffffff" p-id="3984"></path></svg>