<svg xmlns="http://www.w3.org/2000/svg" width="12" height="12" viewBox="0 0 12 12">
  <g id="组_8865" data-name="组 8865" transform="translate(-188 -61)">
    <g id="组_8864" data-name="组 8864" transform="translate(-2 -1)">
      <rect id="矩形_1047" data-name="矩形 1047" width="12" height="12" transform="translate(190 62)" fill="none"/>
    </g>
    <path id="路径_10141" data-name="路径 10141" d="M140.994,11.864a2.35,2.35,0,0,1,.094.483c.021.2,0,1.678,0,1.678h-10.9a14.992,14.992,0,0,1,0-1.884,1.075,1.075,0,0,1,.377-.7,2.466,2.466,0,0,1,.7-.383c.268-.1,1.019-.237,1.308-.312a2.734,2.734,0,0,0,.772-.326,1.916,1.916,0,0,0,.4-.314,1.051,1.051,0,0,0,.2-.3.808.808,0,0,0,.063-.314q0-.163-.013-.364a.7.7,0,0,0-.2-.458q-.176-.169-.377-.345a.829.829,0,0,1-.182-.245,3.122,3.122,0,0,1-.144-.32q-.063-.188-.126-.4a.6.6,0,0,1-.226-.075.879.879,0,0,1-.2-.182.914.914,0,0,1-.163-.333.848.848,0,0,1-.031-.389.883.883,0,0,1,.107-.3,1.02,1.02,0,0,1,.213-.264,9.11,9.11,0,0,1,.05-.954,6.162,6.162,0,0,1,.176-.86,2.527,2.527,0,0,1,.389-.822,2.4,2.4,0,0,1,.527-.571,2.615,2.615,0,0,1,1.205-.515,4.087,4.087,0,0,1,.59-.044,2.915,2.915,0,0,1,.7.082,3.051,3.051,0,0,1,.615.22,2.9,2.9,0,0,1,.509.314,2.583,2.583,0,0,1,.377.352,2.848,2.848,0,0,1,.471.891,5.771,5.771,0,0,1,.22.917,6.736,6.736,0,0,1,.05,1,.591.591,0,0,1,.188.163.945.945,0,0,1,.113.226.73.73,0,0,1,.025.339.922.922,0,0,1-.126.427,1,1,0,0,1-.213.239.833.833,0,0,1-.289.138q-.063.213-.126.4a3.122,3.122,0,0,1-.144.32.829.829,0,0,1-.182.245q-.226.188-.377.32a.728.728,0,0,0-.2.446,1.671,1.671,0,0,0-.031.383.959.959,0,0,0,.1.389,1.223,1.223,0,0,0,.289.37,1.788,1.788,0,0,0,.546.314,5.479,5.479,0,0,0,.672.226q.37.1.716.232a8.118,8.118,0,0,1,1.1.33A1.045,1.045,0,0,1,140.994,11.864Zm-5.347-2.741a.531.531,0,0,0,.389-.163.576.576,0,0,0,0-.8.531.531,0,0,0-.389-.163.565.565,0,1,0,0,1.13Zm.465-2.273a.412.412,0,0,1,.176-.32q.188-.17.427-.37a3.049,3.049,0,0,0,.439-.458,1.061,1.061,0,0,0,.226-.584,2.168,2.168,0,0,0-.075-.665,1.321,1.321,0,0,0-.3-.546,1.456,1.456,0,0,0-.546-.364,2.125,2.125,0,0,0-.785-.132,1.9,1.9,0,0,0-1.532.678,1.625,1.625,0,0,0-.314.584,1.928,1.928,0,0,0-.088.509.441.441,0,0,0,.151.345.524.524,0,0,0,.308.113.479.479,0,0,0,.308-.094.323.323,0,0,0,.138-.276.692.692,0,0,1,.069-.27,1.415,1.415,0,0,1,.188-.308,1.042,1.042,0,0,1,.289-.251.713.713,0,0,1,.37-.1.987.987,0,0,1,.659.207.619.619,0,0,1,.232.521.561.561,0,0,1-.195.421q-.195.182-.427.37a4.4,4.4,0,0,0-.433.4.76.76,0,0,0-.213.5V7.1a.43.43,0,0,0,.138.264.5.5,0,0,0,.339.138.478.478,0,0,0,.333-.138.422.422,0,0,0,.119-.3V6.851Z" transform="translate(58.388 58.958)" fill="#bdc1c9"/>
  </g>
</svg>
